<?xml version="1.0" standalone="no"?>
<!DOCTYPE svg PUBLIC "-//W3C//DTD SVG 20010904//EN"
 "http://www.w3.org/TR/2001/REC-SVG-20010904/DTD/svg10.dtd">
<svg version="1.0" xmlns="http://www.w3.org/2000/svg"
 width="180.000000pt" height="180.000000pt" viewBox="0 0 180.000000 180.000000"
 preserveAspectRatio="xMidYMid meet">
<metadata>
Created by potrace 1.11, written by Peter Selinger 2001-2013
</metadata>
<g transform="translate(0.000000,180.000000) scale(0.100000,-0.100000)"
fill="#000000" stroke="none">
<path d="M570 1476 c-111 -24 -120 -30 -120 -75 l0 -40 -52 -3 -53 -3 0 -420
0 -420 558 -3 557 -2 -2 422 -3 423 -52 3 -52 3 -3 42 c-3 41 -3 41 -63 60
-78 25 -245 27 -328 5 -50 -14 -64 -14 -110 -2 -79 21 -202 25 -277 10z m255
-50 c46 -10 50 -14 50 -40 0 -26 -5 -30 -45 -40 -109 -29 -184 -91 -233 -194
-26 -56 -29 -70 -25 -145 4 -101 30 -157 103 -226 49 -46 140 -91 185 -91 14
0 20 -7 20 -21 0 -19 -3 -20 -42 -12 -55 10 -241 10 -296 0 l-42 -9 2 384 3
383 45 12 c58 15 210 15 275 -1z m450 -7 l30 -14 3 -378 2 -378 -47 8 c-63 11
-236 10 -296 -1 -44 -8 -49 -7 -45 9 2 12 22 23 63 34 111 31 195 110 232 217
22 66 14 195 -16 253 -47 90 -173 181 -252 181 -24 0 -36 27 -22 49 5 9 30 22
54 28 59 17 254 11 294 -8z m-825 -463 c0 -221 4 -357 10 -361 5 -3 33 1 62
10 92 28 201 30 299 7 81 -20 89 -20 135 -5 70 23 242 23 317 0 32 -10 62 -15
67 -12 6 4 10 143 10 361 l0 354 35 0 35 0 0 -380 0 -380 -517 2 -518 3 -3
378 -2 377 35 0 35 0 0 -354z m430 279 c0 -61 -1 -65 -22 -65 -42 0 -52 14
-39 51 10 28 47 79 58 79 2 0 3 -29 3 -65z m85 22 c37 -65 31 -87 -26 -87 -17
0 -19 7 -19 58 0 51 5 72 16 72 2 0 15 -20 29 -43z m-165 28 c0 -15 -36 -75
-45 -75 -12 0 -35 20 -35 31 0 4 15 16 33 28 31 20 47 26 47 16z m233 -6 c12
-6 30 -18 39 -27 17 -14 17 -16 0 -28 -28 -21 -38 -16 -55 26 -17 44 -16 45
16 29z m-317 -100 c37 -22 37 -24 28 -93 l-7 -47 -61 3 c-59 3 -61 4 -58 28 4
31 48 130 58 130 4 0 22 -9 40 -21z m441 -29 c12 -25 23 -58 25 -75 3 -30 2
-30 -51 -33 -30 -2 -57 0 -61 5 -5 4 -11 31 -15 59 -6 50 -6 52 27 72 18 12
38 20 43 19 6 -2 20 -23 32 -47z m-304 -25 c25 -5 28 -9 25 -43 -3 -37 -3 -37
-48 -37 l-45 0 4 40 c4 47 8 55 24 50 7 -2 25 -6 40 -10z m160 -32 c6 -48 -1
-55 -49 -51 -34 3 -39 6 -42 31 -5 38 14 57 53 57 30 0 33 -3 38 -37z m-269
-130 c11 -69 8 -80 -28 -102 -18 -12 -36 -21 -40 -21 -12 0 -56 104 -56 133 0
26 1 27 59 27 l58 0 7 -37z m136 -2 c0 -32 -4 -40 -22 -45 -54 -14 -66 -8 -70
35 -2 22 -2 42 1 45 2 2 24 4 48 4 l43 0 0 -39z m136 17 c-3 -13 -6 -33 -6
-45 0 -18 -6 -23 -26 -23 -41 0 -64 18 -64 49 0 37 6 41 58 41 41 0 44 -2 38
-22z m174 14 c0 -23 -32 -110 -48 -130 l-18 -24 -38 23 c-37 22 -37 22 -31 73
4 28 9 54 12 59 6 10 123 9 123 -1z m-310 -189 l-1 -68 -29 34 c-51 60 -48
100 8 101 21 0 22 -4 22 -67z m99 58 c9 -6 11 -18 8 -33 -7 -28 -44 -78 -58
-78 -5 0 -9 27 -9 60 0 56 2 60 23 60 12 0 28 -4 36 -9z m-199 -61 c26 -52 26
-53 -12 -34 -57 28 -60 34 -35 55 12 10 23 18 24 19 2 0 12 -18 23 -40z m310
4 c0 -7 -80 -57 -85 -53 -2 3 5 24 15 47 19 43 19 43 45 26 14 -9 25 -18 25
-20z"/>
</g>
</svg>
