<svg xmlns="http://www.w3.org/2000/svg" viewBox="0 0 24.08 244.32"><defs><style>.cls-1{isolation:isolate;}.cls-2{fill:#facb47;}</style></defs><title>Recurso 3</title><g id="Capa_2" data-name="Capa 2"><g id="Capa_2-2" data-name="Capa 2"><g id="Grupo_10006" data-name="Grupo 10006"><g class="cls-1"><path class="cls-2" d="M19.24,237.84c0,4-2.54,6.48-6.8,6.48s-6.8-2.48-6.8-6.46c0-2.76,1.14-5,3.64-5.64l1.22,3c-1.64.38-2.16,1.14-2.16,2.5,0,1.92,1.4,3.06,4.1,3.06s4.1-1.06,4.1-3a2.4,2.4,0,0,0-2.16-2.62l.88-3.12C18,232.84,19.24,235,19.24,237.84Z"/><path class="cls-2" d="M12.44,213.76c4.26,0,6.8,2.44,6.8,6.46s-2.54,6.48-6.8,6.48-6.8-2.46-6.8-6.48S8.18,213.76,12.44,213.76Zm0,9.42c2.7,0,4.1-1,4.1-3s-1.4-2.94-4.1-2.94-4.1,1-4.1,2.94S9.74,223.18,12.44,223.18Z"/><path class="cls-2" d="M19,195.5v3.82l-7.14,4.1-2,1v0l2.48-.08H19v3H5.84v-3.82l7.14-4.1,2-1v0l-2.48.08H5.84v-3Z"/><path class="cls-2" d="M4.58,182.52V185L1.4,183.9v-3.22ZM16.38,178H19v10.54H5.84V178.3H8.5v6.84h2.68V179.7h2.5v5.44h2.7Z"/><path class="cls-2" d="M19.24,166.16c0,4-2.54,6.48-6.8,6.48s-6.8-2.48-6.8-6.46c0-2.76,1.14-5,3.64-5.64l1.22,3c-1.64.38-2.16,1.14-2.16,2.5,0,1.92,1.4,3.06,4.1,3.06s4.1-1.06,4.1-3a2.4,2.4,0,0,0-2.16-2.62l.88-3.12C18,161.16,19.24,163.36,19.24,166.16Z"/><path class="cls-2" d="M8.5,143.36v4.3H19v3.44H8.5v4.32H5.84V143.36Z"/><path class="cls-2" d="M16.06,131.62v4.56l3,.92v3.46l-13.2-4.64V131.8L19,127.18v3.54Zm-2.34.72-3.16,1-2.08.58v0l2.06.54,3.18,1Z"/><path class="cls-2" d="M8.5,112.32v4.3H19v3.44H8.5v4.32H5.84V112.32Z"/><path class="cls-2" d="M16.38,95.82H19v10.54H5.84V96.08H8.5v6.84h2.68V97.48h2.5v5.44h2.7Z"/></g><g id="Grupo_5097" data-name="Grupo 5097"><g id="Grupo_5075" data-name="Grupo 5075"><path id="Trazado_70134" data-name="Trazado 70134" class="cls-2" d="M11.48,10.77c0,4-2,6-3.52,7.55-1.25,1.27-1.75,1.84-1.75,3.21s.5,1.94,1.75,3.21c1.48,1.52,3.52,3.59,3.52,7.55s-2,6-3.52,7.56c-1.25,1.26-1.75,1.84-1.75,3.2s.5,2,1.75,3.21c1.48,1.52,3.52,3.6,3.52,7.56s-2,6-3.52,7.55c-1.25,1.27-1.75,1.84-1.75,3.21s.5,1.94,1.75,3.21c1.48,1.52,3.52,3.6,3.52,7.55s-2,6-3.52,7.56c-1.25,1.27-1.75,1.84-1.75,3.21H0c0-4,2-6,3.53-7.56,1.24-1.27,1.75-1.84,1.75-3.21s-.51-1.94-1.75-3.21C2,70.62,0,68.54,0,64.58s2-6,3.53-7.55c1.24-1.27,1.75-1.84,1.75-3.21s-.51-1.94-1.75-3.21C2,49.09,0,47,0,43.05s2-6,3.53-7.55c1.24-1.27,1.75-1.84,1.75-3.21s-.51-1.94-1.75-3.21C2,27.57,0,25.48,0,21.53s2-6,3.53-7.56c1.24-1.27,1.75-1.83,1.75-3.21s-.51-1.94-1.75-3.2C2,6,0,4,0,0H6.21c0,1.37.5,1.94,1.75,3.21C9.44,4.73,11.48,6.81,11.48,10.77Z"/></g><g id="Grupo_5076" data-name="Grupo 5076"><path id="Trazado_70135" data-name="Trazado 70135" class="cls-2" d="M24.08,10.77c0,4-2,6-3.53,7.55-1.24,1.27-1.75,1.84-1.75,3.21s.51,1.94,1.75,3.21c1.49,1.52,3.53,3.59,3.53,7.55s-2,6-3.52,7.56c-1.25,1.26-1.75,1.84-1.75,3.2s.5,2,1.75,3.21c1.48,1.52,3.52,3.6,3.52,7.56s-2,6-3.52,7.55c-1.25,1.27-1.75,1.84-1.75,3.21s.5,1.94,1.75,3.21c1.48,1.52,3.52,3.6,3.52,7.55s-2,6-3.52,7.56c-1.25,1.27-1.75,1.84-1.75,3.21H12.6c0-4,2-6,3.53-7.56,1.24-1.27,1.75-1.84,1.75-3.21s-.51-1.94-1.75-3.21c-1.49-1.51-3.53-3.59-3.53-7.55s2-6,3.53-7.55c1.24-1.27,1.75-1.84,1.75-3.21s-.51-1.94-1.75-3.21c-1.49-1.52-3.53-3.6-3.53-7.56s2-6,3.53-7.55c1.24-1.27,1.75-1.84,1.75-3.21s-.51-1.94-1.75-3.21c-1.49-1.51-3.53-3.6-3.53-7.55s2-6,3.53-7.56c1.24-1.27,1.75-1.83,1.75-3.21s-.51-1.94-1.75-3.2C14.64,6,12.6,4,12.6,0h6.2c0,1.37.51,1.94,1.76,3.21C22,4.73,24.08,6.81,24.08,10.77Z"/></g></g></g></g></g></svg>