<svg xmlns="http://www.w3.org/2000/svg" viewBox="0 0 53.16 185.62"><defs><style>.cls-1{isolation:isolate;}.cls-2{fill:#fef033;}</style></defs><title>Recurso 4</title><g id="Capa_2" data-name="Capa 2"><g id="Capa_2-2" data-name="Capa 2"><g id="Grupo_5662" data-name="Grupo 5662"><g class="cls-1"><path class="cls-2" d="M22.29,177.52c0,5-3.17,8.1-8.49,8.1s-8.5-3.1-8.5-8.07c0-3.45,1.42-6.23,4.55-7.05l1.52,3.77c-2,.48-2.7,1.43-2.7,3.13,0,2.4,1.75,3.82,5.13,3.82s5.12-1.32,5.12-3.75a3,3,0,0,0-2.7-3.27l1.1-3.9C20.77,171.28,22.29,174,22.29,177.52Z"/><path class="cls-2" d="M13.8,147.43c5.32,0,8.49,3,8.49,8.07s-3.17,8.1-8.49,8.1-8.5-3.08-8.5-8.1S8.47,147.43,13.8,147.43Zm0,11.77c3.37,0,5.12-1.3,5.12-3.7s-1.75-3.68-5.12-3.68-5.13,1.3-5.13,3.68S10.42,159.2,13.8,159.2Z"/><path class="cls-2" d="M22,124.6v4.77l-8.92,5.13-2.5,1.25v0l3.1-.1H22v3.8H5.55V134.7l8.92-5.13,2.5-1.25v0l-3.1.1H5.55v-3.8Z"/><path class="cls-2" d="M4,108.37v3.1L0,110.1v-4Zm14.75-5.6H22V116H5.55V103.1H8.87v8.55h3.35v-6.8h3.13v6.8h3.37Z"/><path class="cls-2" d="M22.29,87.92c0,5-3.17,8.1-8.49,8.1S5.3,92.92,5.3,88c0-3.45,1.42-6.23,4.55-7l1.52,3.77c-2,.48-2.7,1.43-2.7,3.13,0,2.4,1.75,3.82,5.13,3.82s5.12-1.32,5.12-3.75a3,3,0,0,0-2.7-3.27l1.1-3.9C20.77,81.67,22.29,84.42,22.29,87.92Z"/><path class="cls-2" d="M8.87,59.42V64.8H22v4.3H8.87v5.4H5.55V59.42Z"/><path class="cls-2" d="M18.32,44.75v5.7L22,51.6v4.32L5.55,50.12V45L22,39.2v4.42Zm-2.92.9-4,1.2-2.6.72v0l2.57.68,4,1.25Z"/><path class="cls-2" d="M8.87,20.62V26H22v4.3H8.87v5.4H5.55V20.62Z"/><path class="cls-2" d="M18.72,0H22V13.17H5.55V.32H8.87V8.87h3.35V2.07h3.13v6.8h3.37Z"/></g><g id="Grupo_5623" data-name="Grupo 5623"><g id="Grupo_5075" data-name="Grupo 5075"><path id="Trazado_70134" data-name="Trazado 70134" class="cls-2" d="M37.68,100.44a11.71,11.71,0,0,1-3.52,8.45c-1.25,1.43-1.75,2.07-1.75,3.6s.5,2.17,1.75,3.59a11.9,11.9,0,0,1,0,16.9c-1.25,1.42-1.75,2.06-1.75,3.59s.5,2.17,1.75,3.59a11.91,11.91,0,0,1,0,16.91c-1.25,1.42-1.75,2.06-1.75,3.59s.5,2.17,1.75,3.59a11.9,11.9,0,0,1,0,16.9c-1.25,1.42-1.75,2.06-1.75,3.59h-6.2a11.71,11.71,0,0,1,3.52-8.45c1.24-1.42,1.75-2.06,1.75-3.59s-.51-2.17-1.75-3.59a11.91,11.91,0,0,1-.06-16.84l.06-.06c1.24-1.42,1.75-2.06,1.75-3.59S31,146.45,29.73,145a11.91,11.91,0,0,1-.06-16.84l.06-.06c1.24-1.42,1.75-2.06,1.75-3.59S31,122.37,29.73,121a11.91,11.91,0,0,1-.06-16.84l.06-.06c1.24-1.42,1.75-2.06,1.75-3.59s-.51-2.17-1.75-3.59a11.78,11.78,0,0,1-3.52-8.47h6.2c0,1.53.5,2.17,1.75,3.59A11.75,11.75,0,0,1,37.68,100.44Z"/></g><g id="Grupo_5076" data-name="Grupo 5076"><path id="Trazado_70135" data-name="Trazado 70135" class="cls-2" d="M53.15,100.44a11.71,11.71,0,0,1-3.52,8.45c-1.24,1.43-1.74,2.07-1.74,3.6s.5,2.17,1.75,3.59a11.9,11.9,0,0,1,0,16.9c-1.25,1.42-1.75,2.06-1.75,3.59s.5,2.17,1.74,3.59a11.91,11.91,0,0,1,0,16.91c-1.24,1.42-1.74,2.06-1.74,3.59s.5,2.17,1.75,3.59a11.89,11.89,0,0,1,0,16.9c-1.24,1.42-1.74,2.06-1.74,3.59h-6.2a11.71,11.71,0,0,1,3.52-8.45c1.24-1.42,1.75-2.06,1.75-3.59s-.51-2.17-1.75-3.59a11.9,11.9,0,0,1-.06-16.84l.06-.06c1.24-1.42,1.75-2.06,1.75-3.59s-.51-2.17-1.75-3.59a11.9,11.9,0,0,1-.06-16.84l.06-.06c1.24-1.42,1.75-2.06,1.75-3.59s-.51-2.17-1.75-3.59a11.9,11.9,0,0,1-.06-16.84l.06-.06C46.45,102.63,47,102,47,100.46s-.51-2.17-1.75-3.59a11.7,11.7,0,0,1-3.52-8.47h6.2c0,1.53.5,2.17,1.75,3.59A11.68,11.68,0,0,1,53.15,100.44Z"/></g></g></g></g></g></svg>