<?xml version="1.0" encoding="utf-8"?>
<!-- Generator: Adobe Illustrator 23.0.6, SVG Export Plug-In . SVG Version: 6.00 Build 0)  -->
<svg version="1.1" id="Capa_1" xmlns="http://www.w3.org/2000/svg" xmlns:xlink="http://www.w3.org/1999/xlink" x="0px" y="0px"
	 viewBox="0 0 24.1 206.8" style="enable-background:new 0 0 24.1 206.8;" xml:space="preserve">
<style type="text/css">
	.st0{fill:#FFC700;}
</style>
<title>equidad</title>
<path class="st0" d="M13.4,196.2H16v10.5H2.8v-10.3h2.7v6.8h2.7v-5.4h2.5v5.4h2.7V196.2z"/>
<path class="st0" d="M16.7,178.8l2.5-0.8c0.7,1,1.1,2.2,1,3.4c0,2.8-1.5,4.3-4,4.1c-0.4,3.3-2.9,5.3-6.7,5.3c-4.3,0-6.8-2.5-6.8-6.5
	s2.5-6.5,6.8-6.5c3.9,0,6.3,2,6.7,5.4c1-0.1,1.3-0.9,1.3-2C17.5,180.4,17.2,179.5,16.7,178.8z M13.5,184.3c0-1.9-1.4-2.9-4.1-2.9
	s-4.1,1-4.1,2.9s1.4,3,4.1,3S13.5,186.3,13.5,184.3z"/>
<path class="st0" d="M10.7,160c3.7,0,5.6,2,5.6,5.9s-1.9,5.9-5.6,5.9H2.8v-3.5h7.9c1.9,0,2.8-0.8,2.8-2.4s-0.9-2.5-2.8-2.5H2.8V160
	H10.7z"/>
<path class="st0" d="M16,149.8v3.4H2.8v-3.4H16z"/>
<path class="st0" d="M9.4,130.9c4.2,0,6.6,2.3,6.6,6.4v5.6H2.8v-5.6C2.8,133.2,5.2,130.9,9.4,130.9z M9.4,134.4c-2.6,0-4,1-4,3.2
	v1.8h8v-1.8C13.4,135.4,12.1,134.4,9.4,134.4z"/>
<path class="st0" d="M13.1,117.5v4.5l3,0.9v3.5l-13.2-4.6v-4.1L16,113v3.5L13.1,117.5z M10.7,118.2l-3.2,1l-2.1,0.6l0,0l2.1,0.5
	l3.2,1V118.2z"/>
<path class="st0" d="M9.4,95.5c4.2,0,6.6,2.3,6.6,6.4v5.6H2.8v-5.6C2.8,97.8,5.2,95.5,9.4,95.5z M9.4,99c-2.6,0-4,1-4,3.2v1.8h8
	v-1.8C13.4,100,12.1,99,9.4,99L9.4,99z"/>
<g id="Grupo_5097">
	<g id="Grupo_5075">
		<path id="Trazado_70134" class="st0" d="M11.5,10.8c0,4-2,6-3.5,7.5c-1.2,1.3-1.8,1.8-1.8,3.2s0.5,1.9,1.8,3.2
			c1.5,1.5,3.5,3.6,3.5,7.5s-2,6-3.5,7.6c-1.2,1.3-1.8,1.8-1.8,3.2s0.5,2,1.8,3.2c1.5,1.5,3.5,3.6,3.5,7.6s-2,6-3.5,7.5
			c-1.2,1.3-1.8,1.8-1.8,3.2s0.5,1.9,1.8,3.2c1.5,1.5,3.5,3.6,3.5,7.6s-2,6-3.5,7.6c-1.2,1.3-1.8,1.8-1.8,3.2H0c0-4,2-6,3.5-7.6
			c1.2-1.3,1.7-1.8,1.7-3.2s-0.5-1.9-1.8-3.2C2,70.6,0,68.5,0,64.6s2-6,3.5-7.5c1.2-1.3,1.7-1.8,1.7-3.2s-0.5-1.9-1.8-3.2
			C2,49.1,0,47,0,43s2-6,3.5-7.5c1.2-1.3,1.7-1.8,1.7-3.2s-0.5-1.9-1.8-3.2C2,27.6,0,25.5,0,21.5s2-6,3.5-7.6
			c1.2-1.3,1.7-1.8,1.7-3.2S4.8,8.8,3.5,7.6C2,6,0,4,0,0h6.2c0,1.4,0.5,1.9,1.8,3.2C9.4,4.7,11.5,6.8,11.5,10.8z"/>
	</g>
	<g id="Grupo_5076">
		<path id="Trazado_70135" class="st0" d="M24.1,10.8c0,4-2,6-3.5,7.5c-1.2,1.3-1.8,1.8-1.8,3.2s0.5,1.9,1.8,3.2
			c1.5,1.5,3.5,3.6,3.5,7.5s-2,6-3.5,7.6c-1.2,1.3-1.8,1.8-1.8,3.2s0.5,2,1.8,3.2c1.5,1.5,3.5,3.6,3.5,7.6s-2,6-3.5,7.5
			c-1.2,1.3-1.8,1.8-1.8,3.2s0.5,1.9,1.8,3.2c1.5,1.5,3.5,3.6,3.5,7.6s-2,6-3.5,7.6c-1.2,1.3-1.8,1.8-1.8,3.2h-6.2c0-4,2-6,3.5-7.6
			c1.2-1.3,1.8-1.8,1.8-3.2s-0.5-1.9-1.8-3.2c-1.5-1.5-3.5-3.6-3.5-7.6s2-6,3.5-7.5c1.2-1.3,1.8-1.8,1.8-3.2s-0.5-1.9-1.8-3.2
			c-1.5-1.5-3.5-3.6-3.5-7.6s2-6,3.5-7.5c1.2-1.3,1.8-1.8,1.8-3.2s-0.5-1.9-1.8-3.2c-1.5-1.5-3.5-3.6-3.5-7.5s2-6,3.5-7.6
			c1.2-1.3,1.8-1.8,1.8-3.2s-0.5-1.9-1.8-3.2C14.6,6,12.6,4,12.6,0h6.2c0,1.4,0.5,1.9,1.8,3.2C22,4.7,24.1,6.8,24.1,10.8z"/>
	</g>
</g>
</svg>
