<?xml version="1.0" encoding="utf-8"?>
<!-- Generator: Adobe Illustrator 23.0.6, SVG Export Plug-In . SVG Version: 6.00 Build 0)  -->
<svg version="1.1" id="Capa_1" xmlns="http://www.w3.org/2000/svg" xmlns:xlink="http://www.w3.org/1999/xlink" x="0px" y="0px"
	 viewBox="0 0 24.6 191.2" style="enable-background:new 0 0 24.6 191.2;" xml:space="preserve">
<style type="text/css">
	.st0{enable-background:new    ;}
	.st1{fill:#1A519E;}
</style>
<title>equipo</title>
<g>
	<g id="Capa_1-2">
		<g class="st0">
			<path class="st1" d="M13.9,179.2h2.7v10.5H3.4v-10.3h2.7v6.8h2.7v-5.4h2.5v5.4h2.7V179.2z"/>
		</g>
		<path class="st1" d="M17.2,161.8l2.5-0.8c0.6,0.7,1,1.9,1,3.4c0,2.8-1.5,4.3-4,4.1c-0.4,3.3-2.9,5.3-6.7,5.3
			c-4.3,0-6.8-2.5-6.8-6.5c0-4,2.5-6.5,6.8-6.5c3.9,0,6.3,2,6.7,5.4c1-0.1,1.3-0.9,1.3-2C18,163.2,17.7,162.3,17.2,161.8z
			 M14.1,167.3c0-1.9-1.4-2.9-4.1-2.9c-2.7,0-4.1,1-4.1,2.9c0,1.9,1.4,3,4.1,3C12.7,170.3,14.1,169.3,14.1,167.3z"/>
		<path class="st1" d="M11.2,143c3.7,0,5.6,2,5.6,5.9c0,3.9-1.9,5.9-5.6,5.9H3.4v-3.5h7.9c1.9,0,2.8-0.8,2.8-2.4
			c0-1.7-0.9-2.5-2.8-2.5H3.4V143H11.2z"/>
		<path class="st1" d="M16.6,132.8v3.4H3.4v-3.4H16.6z"/>
		<path class="st1" d="M7.8,114.7c2.7,0,4.2,1.8,4.2,5.1v2.6h4.6v3.4H3.4v-6.1C3.4,116.6,4.9,114.7,7.8,114.7z M7.7,118.2
			c-1.2,0-1.7,0.7-1.7,2.2v2.1h3.5v-2.1C9.5,118.9,8.9,118.2,7.7,118.2z"/>
		<path class="st1" d="M10,96.2c4.3,0,6.8,2.4,6.8,6.5c0,4-2.5,6.5-6.8,6.5c-4.3,0-6.8-2.5-6.8-6.5C3.2,98.6,5.7,96.2,10,96.2z
			 M10,105.6c2.7,0,4.1-1,4.1-3c0-1.9-1.4-2.9-4.1-2.9c-2.7,0-4.1,1-4.1,2.9C5.9,104.5,7.3,105.6,10,105.6z"/>
		<g id="Grupo_5097">
			<g id="Grupo_5075">
				<path id="Trazado_70134" class="st1" d="M12,10.8c0,4-2,6-3.5,7.5c-1.2,1.3-1.8,1.8-1.8,3.2s0.5,1.9,1.8,3.2
					c1.5,1.5,3.5,3.6,3.5,7.6s-2,6-3.5,7.6c-1.2,1.3-1.8,1.8-1.8,3.2s0.5,2,1.8,3.2c1.5,1.5,3.5,3.6,3.5,7.6s-2,6-3.5,7.5
					c-1.2,1.3-1.8,1.8-1.8,3.2s0.5,1.9,1.8,3.2c1.5,1.5,3.5,3.6,3.5,7.5s-2,6-3.5,7.6c-1.2,1.3-1.8,1.8-1.8,3.2H0.6c0-4,2-6,3.5-7.6
					c1.2-1.3,1.8-1.8,1.8-3.2s-0.5-1.9-1.8-3.2c-1.5-1.5-3.5-3.6-3.5-7.5s2-6,3.5-7.5c1.2-1.3,1.8-1.8,1.8-3.2s-0.5-1.9-1.8-3.2
					C2.6,49.1,0.6,47,0.6,43s2-6,3.5-7.5c1.2-1.3,1.8-1.8,1.8-3.2s-0.5-1.9-1.8-3.2c-1.5-1.5-3.5-3.6-3.5-7.6s2-6,3.5-7.6
					c1.2-1.3,1.8-1.8,1.8-3.2S5.3,8.8,4.1,7.6C2.6,6,0.6,4,0.6,0h6.2c0,1.4,0.5,1.9,1.8,3.2C10,4.7,12,6.8,12,10.8z"/>
			</g>
			<g id="Grupo_5076">
				<path id="Trazado_70135" class="st1" d="M24.6,10.8c0,4-2,6-3.5,7.5c-1.2,1.3-1.8,1.8-1.8,3.2s0.5,1.9,1.8,3.2
					c1.5,1.5,3.5,3.6,3.5,7.5s-2,6-3.5,7.6c-1.2,1.3-1.8,1.8-1.8,3.2s0.5,2,1.8,3.2c1.5,1.5,3.5,3.6,3.5,7.6s-2,6-3.5,7.5
					c-1.2,1.3-1.8,1.8-1.8,3.2s0.5,1.9,1.8,3.2c1.5,1.5,3.5,3.6,3.5,7.6s-2,6-3.5,7.6c-1.2,1.3-1.8,1.8-1.8,3.2h-6.2
					c0-4,2-6,3.5-7.6c1.2-1.3,1.8-1.8,1.8-3.2s-0.5-1.9-1.8-3.2c-1.5-1.5-3.5-3.6-3.5-7.6s2-6,3.5-7.5c1.2-1.3,1.8-1.8,1.8-3.2
					s-0.5-1.9-1.8-3.2c-1.5-1.5-3.5-3.6-3.5-7.6s2-6,3.5-7.5c1.2-1.3,1.8-1.8,1.8-3.2s-0.5-1.9-1.8-3.2c-1.5-1.5-3.5-3.6-3.5-7.5
					s2-6,3.5-7.6c1.2-1.3,1.8-1.8,1.8-3.2s-0.5-1.9-1.8-3.2C15.2,6,13.2,4,13.2,0h6.2c0,1.4,0.5,1.9,1.8,3.2
					C22.6,4.7,24.6,6.8,24.6,10.8z"/>
			</g>
		</g>
	</g>
</g>
</svg>
