<svg xmlns="http://www.w3.org/2000/svg" viewBox="0 0 29.73 74.88"><defs><style>.cls-1{isolation:isolate;}.cls-2{fill:#1a519e;}</style></defs><title>equipo2</title><g id="Capa_2" data-name="Capa 2"><g id="Capa_1-2" data-name="Capa 1"><g id="Grupo_5628" data-name="Grupo 5628"><g class="cls-1"><path class="cls-2" d="M8.6,66.45h2.12v8.43H.16V66.66H2.29v5.47H4.43V67.78h2v4.35H8.6Z"/><path class="cls-2" d="M11.22,52.51l2-.65A4.16,4.16,0,0,1,14,54.58c0,2.25-1.22,3.44-3.17,3.29-.35,2.66-2.3,4.26-5.38,4.26C2,62.13,0,60.16,0,57s2-5.17,5.44-5.17c3.11,0,5.06,1.61,5.4,4.32.8-.1,1-.71,1-1.62A2.82,2.82,0,0,0,11.22,52.51ZM8.72,57c0-1.52-1.12-2.36-3.28-2.36S2.16,55.43,2.16,57s1.12,2.36,3.28,2.36S8.72,58.48,8.72,57Z"/><path class="cls-2" d="M6.42,37.44c3,0,4.46,1.6,4.46,4.72S9.4,46.88,6.42,46.88H.16V44.11H6.47c1.52,0,2.25-.64,2.25-2s-.73-2-2.25-2H.16V37.44Z"/><path class="cls-2" d="M10.72,29.33v2.75H.16V29.33Z"/><path class="cls-2" d="M3.67,14.86c2.16,0,3.39,1.46,3.39,4.09V21h3.66V23.8H.16V19C.16,16.32,1.39,14.86,3.67,14.86Zm0,2.77c-.92,0-1.39.53-1.39,1.75V21H5V19.38C5,18.16,4.58,17.63,3.63,17.63Z"/><path class="cls-2" d="M5.44,0c3.41,0,5.44,2,5.44,5.17s-2,5.19-5.44,5.19S0,8.39,0,5.17,2,0,5.44,0Zm0,7.54c2.16,0,3.28-.83,3.28-2.37S7.6,2.82,5.44,2.82s-3.28.83-3.28,2.35S3.28,7.54,5.44,7.54Z"/></g><g id="Grupo_5623" data-name="Grupo 5623"><g id="Grupo_5075" data-name="Grupo 5075"><path id="Trazado_70134" data-name="Trazado 70134" class="cls-2" d="M21.3,6.64a6.37,6.37,0,0,1-1.92,4.6c-.67.78-.95,1.13-.95,2s.28,1.18.95,2a6.47,6.47,0,0,1,0,9.2c-.67.77-.95,1.12-.95,1.95s.28,1.18.95,2a6.47,6.47,0,0,1,0,9.2c-.67.78-.95,1.13-.95,2s.28,1.18.95,1.95a6.47,6.47,0,0,1,0,9.2c-.67.78-.95,1.13-.95,2H15.06A6.4,6.4,0,0,1,17,47.93c.68-.77,1-1.12,1-2s-.28-1.18-1-2a6.48,6.48,0,0,1,0-9.16l0,0c.68-.77,1-1.12,1-2s-.28-1.18-1-1.95a6.49,6.49,0,0,1,0-9.17l0,0c.68-.78,1-1.12,1-2s-.28-1.18-1-2a6.49,6.49,0,0,1,0-9.17l0,0c.68-.78,1-1.12,1-2s-.28-1.18-1-1.95A6.4,6.4,0,0,1,15.06.09h3.37c0,.83.28,1.18.95,2A6.37,6.37,0,0,1,21.3,6.64Z"/></g><g id="Grupo_5076" data-name="Grupo 5076"><path id="Trazado_70135" data-name="Trazado 70135" class="cls-2" d="M29.73,6.64a6.41,6.41,0,0,1-1.92,4.6c-.68.78-.95,1.13-.95,2s.27,1.18.95,2a6.47,6.47,0,0,1,0,9.2c-.68.77-.95,1.12-.95,1.95s.27,1.18.95,2a6.47,6.47,0,0,1,0,9.2c-.68.78-.95,1.13-.95,2s.27,1.18.95,1.95a6.47,6.47,0,0,1,0,9.2c-.68.78-.95,1.13-.95,2H23.48a6.37,6.37,0,0,1,1.92-4.6c.68-.77,1-1.12,1-2s-.27-1.18-1-2a6.47,6.47,0,0,1,0-9.16l0,0c.68-.77,1-1.12,1-2s-.27-1.18-1-1.95a6.48,6.48,0,0,1,0-9.17l0,0c.68-.78,1-1.12,1-2s-.27-1.18-1-2a6.48,6.48,0,0,1,0-9.17l0,0c.68-.78,1-1.12,1-2s-.27-1.18-1-1.95A6.41,6.41,0,0,1,23.48.09h3.38c0,.83.27,1.18.95,2A6.37,6.37,0,0,1,29.73,6.64Z"/></g></g></g></g></g></svg>