<svg xmlns="http://www.w3.org/2000/svg" viewBox="0 0 28.73 89.01"><defs><style>.cls-1{isolation:isolate;}.cls-2{fill:#fef033;}</style></defs><title>equidad2</title><g id="Capa_2" data-name="Capa 2"><g id="Capa_1-2" data-name="Capa 1"><g id="Grupo_5628" data-name="Grupo 5628"><g class="cls-1"><path class="cls-2" d="M8.6,80.58h2.12V89H.16V80.78H2.29v5.48H4.43V81.9h2v4.36H8.6Z"/><path class="cls-2" d="M11.22,66.64l2-.66A4.2,4.2,0,0,1,14,68.7c0,2.26-1.22,3.45-3.17,3.3-.35,2.66-2.3,4.26-5.38,4.26C2,76.26,0,74.29,0,71.07S2,65.9,5.44,65.9c3.11,0,5.06,1.62,5.4,4.33.8-.1,1-.71,1-1.62A2.82,2.82,0,0,0,11.22,66.64Zm-2.5,4.43c0-1.52-1.12-2.35-3.28-2.35s-3.28.83-3.28,2.35,1.12,2.37,3.28,2.37S8.72,72.61,8.72,71.07Z"/><path class="cls-2" d="M6.42,51.57c3,0,4.46,1.6,4.46,4.72S9.4,61,6.42,61H.16V58.24H6.47c1.52,0,2.25-.64,2.25-2s-.73-2-2.25-2H.16V51.57Z"/><path class="cls-2" d="M10.72,43.46v2.75H.16V43.46Z"/><path class="cls-2" d="M5.44,28.32c3.38,0,5.28,1.81,5.28,5.12v4.48H.16V33.44C.16,30.13,2.07,28.32,5.44,28.32Zm0,2.82c-2.11,0-3.2.78-3.2,2.57v1.46h6.4V33.71C8.64,31.92,7.56,31.14,5.44,31.14Z"/><path class="cls-2" d="M8.34,17.59v3.64l2.38.74v2.77L.16,21v-3.3L10.72,14v2.83Zm-1.87.57-2.53.77-1.67.46v0l1.65.43,2.55.8Z"/><path class="cls-2" d="M5.44,0c3.38,0,5.28,1.81,5.28,5.12V9.6H.16V5.12C.16,1.81,2.07,0,5.44,0Zm0,2.82c-2.11,0-3.2.78-3.2,2.57V6.85h6.4V5.39C8.64,3.6,7.56,2.82,5.44,2.82Z"/></g><g id="Grupo_5623" data-name="Grupo 5623"><g id="Grupo_5075" data-name="Grupo 5075"><path id="Trazado_70134" data-name="Trazado 70134" class="cls-2" d="M20.3,6.77a6.37,6.37,0,0,1-1.92,4.6c-.67.78-.95,1.12-.95,2s.28,1.18.95,1.95a6.47,6.47,0,0,1,0,9.2c-.67.78-.95,1.12-.95,2s.28,1.18.95,1.95a6.47,6.47,0,0,1,0,9.2c-.67.78-.95,1.12-.95,2s.28,1.18.95,2a6.47,6.47,0,0,1,0,9.2c-.67.78-.95,1.13-.95,2H14.06A6.4,6.4,0,0,1,16,48.06c.68-.77,1-1.12,1-2s-.28-1.18-1-2a6.48,6.48,0,0,1,0-9.16l0,0c.68-.77,1-1.12,1-2s-.28-1.18-1-2a6.48,6.48,0,0,1,0-9.16l0,0c.68-.77,1-1.12,1-1.95s-.28-1.18-1-2a6.48,6.48,0,0,1,0-9.16l0,0c.68-.77,1-1.12,1-1.95s-.28-1.18-1-2A6.36,6.36,0,0,1,14.06.22h3.37c0,.83.28,1.18.95,2A6.37,6.37,0,0,1,20.3,6.77Z"/></g><g id="Grupo_5076" data-name="Grupo 5076"><path id="Trazado_70135" data-name="Trazado 70135" class="cls-2" d="M28.72,6.77a6.36,6.36,0,0,1-1.91,4.6c-.68.78-.95,1.12-.95,2s.27,1.18.95,1.95a6.49,6.49,0,0,1,0,9.2c-.68.78-.95,1.12-.95,2s.27,1.18.95,1.95a6.49,6.49,0,0,1,0,9.2c-.68.78-.95,1.12-.95,2s.27,1.18.95,2a6.49,6.49,0,0,1,0,9.2c-.68.78-.95,1.13-.95,2H22.48a6.37,6.37,0,0,1,1.92-4.6c.68-.77,1-1.12,1-2s-.27-1.18-1-2a6.47,6.47,0,0,1,0-9.16l0,0c.68-.77,1-1.12,1-2s-.27-1.18-1-2a6.47,6.47,0,0,1,0-9.16l0,0c.68-.77,1-1.12,1-1.95s-.27-1.18-1-2a6.47,6.47,0,0,1,0-9.16l0,0c.68-.77,1-1.12,1-1.95s-.27-1.18-1-2A6.37,6.37,0,0,1,22.48.22h3.38c0,.83.27,1.18.95,2A6.32,6.32,0,0,1,28.72,6.77Z"/></g></g></g></g></g></svg>