<svg xmlns="http://www.w3.org/2000/svg" viewBox="0 0 29.73 126.83"><defs><style>.cls-1{isolation:isolate;}.cls-2{fill:#fef033;}</style></defs><title>excelencia2</title><g id="Capa_2" data-name="Capa 2"><g id="Capa_1-2" data-name="Capa 1"><g id="Grupo_5628" data-name="Grupo 5628"><g class="cls-1"><path class="cls-2" d="M8.6,118.4h2.12v8.43H.16v-8.22H2.29v5.47H4.43v-4.35h2v4.35H8.6Z"/><path class="cls-2" d="M10.72,107.5l-3.47,2,3.47,1.92v3.12L5.41,111,.16,114.32v-3.25l3.36-1.82L.16,107.43v-3l5.17,3.38,5.39-3.61Z"/><path class="cls-2" d="M10.88,95.83c0,3.21-2,5.18-5.44,5.18S0,99,0,95.84c0-2.21.91-4,2.91-4.51l1,2.41c-1.31.31-1.73.92-1.73,2,0,1.53,1.12,2.44,3.28,2.44s3.28-.84,3.28-2.4A1.91,1.91,0,0,0,7,93.7l.7-2.5C9.91,91.82,10.88,93.58,10.88,95.83Z"/><path class="cls-2" d="M8.6,78h2.12v8.44H.16V78.24H2.29v5.47H4.43V79.36h2v4.35H8.6Z"/><path class="cls-2" d="M8.6,65.12h2.12v8H.16V70.42H8.6Z"/><path class="cls-2" d="M8.6,51.9h2.12v8.44H.16V52.11H2.29v5.48H4.43V53.23h2v4.36H8.6Z"/><path class="cls-2" d="M10.72,37.52v3.06L5,43.86l-1.6.8h0l2-.06h5.33V47H.16V44l5.72-3.28,1.6-.81h0l-2,.06H.16V37.52Z"/><path class="cls-2" d="M10.88,27.25c0,3.22-2,5.19-5.44,5.19S0,30.45,0,27.27c0-2.21.91-4,2.91-4.52l1,2.42c-1.31.3-1.73.91-1.73,2,0,1.54,1.12,2.45,3.28,2.45s3.28-.85,3.28-2.4A1.92,1.92,0,0,0,7,25.12l.7-2.5C9.91,23.25,10.88,25,10.88,27.25Z"/><path class="cls-2" d="M10.72,15.14v2.75H.16V15.14Z"/><path class="cls-2" d="M8.34,3.55V7.2l2.38.74v2.77L.16,7V3.7L10.72,0V2.83Zm-1.87.58L3.94,4.9l-1.67.46v0l1.65.44,2.55.8Z"/></g><g id="Grupo_5623" data-name="Grupo 5623"><g id="Grupo_5075" data-name="Grupo 5075"><path id="Trazado_70134" data-name="Trazado 70134" class="cls-2" d="M21.3,6.6a6.37,6.37,0,0,1-1.92,4.6c-.67.77-.95,1.12-.95,2s.28,1.18.95,2a6.47,6.47,0,0,1,0,9.2c-.67.77-.95,1.12-.95,2s.28,1.18.95,2a6.47,6.47,0,0,1,0,9.2c-.67.77-.95,1.12-.95,1.95s.28,1.18.95,2a6.47,6.47,0,0,1,0,9.2c-.67.78-.95,1.12-.95,2H15.06A6.4,6.4,0,0,1,17,47.89c.68-.78,1-1.12,1-2s-.28-1.18-1-2a6.49,6.49,0,0,1,0-9.17l0,0c.68-.78,1-1.12,1-2s-.28-1.18-1-1.95a6.49,6.49,0,0,1,0-9.17l0,0c.68-.78,1-1.12,1-2s-.28-1.18-1-1.95a6.49,6.49,0,0,1,0-9.17l0,0c.68-.78,1-1.12,1-2s-.28-1.18-1-1.95A6.38,6.38,0,0,1,15.06,0h3.37c0,.83.28,1.18.95,2A6.37,6.37,0,0,1,21.3,6.6Z"/></g><g id="Grupo_5076" data-name="Grupo 5076"><path id="Trazado_70135" data-name="Trazado 70135" class="cls-2" d="M29.72,6.6a6.36,6.36,0,0,1-1.91,4.6c-.68.77-.95,1.12-.95,2s.27,1.18.95,2a6.49,6.49,0,0,1,0,9.2c-.68.77-.95,1.12-.95,2s.27,1.18.95,2a6.49,6.49,0,0,1,0,9.2c-.68.77-.95,1.12-.95,1.95s.27,1.18.95,2a6.49,6.49,0,0,1,0,9.2c-.68.78-.95,1.12-.95,2H23.48a6.37,6.37,0,0,1,1.92-4.6c.68-.78,1-1.12,1-2s-.27-1.18-1-2a6.48,6.48,0,0,1,0-9.17l0,0c.68-.78,1-1.12,1-2s-.27-1.18-1-1.95a6.48,6.48,0,0,1,0-9.17l0,0c.68-.78,1-1.12,1-2s-.27-1.18-1-1.95a6.48,6.48,0,0,1,0-9.17l0,0c.68-.78,1-1.12,1-2s-.27-1.18-1-1.95A6.39,6.39,0,0,1,23.48,0h3.38c0,.83.27,1.18.95,2A6.32,6.32,0,0,1,29.72,6.6Z"/></g></g></g></g></g></svg>