<svg xmlns="http://www.w3.org/2000/svg" width="1107.44" height="62.666" viewBox="0 0 1107.44 62.666">
  <g id="Grupo_10004" data-name="Grupo 10004" transform="translate(-0.5 -1445.676)">
    <line id="Línea_163" data-name="Línea 163" x2="1045.416" transform="translate(0.5 1476.355)" fill="none" stroke="#1a519e" stroke-width="2"/>
    <g id="Grupo_10003" data-name="Grupo 10003" transform="translate(-16.331)">
      <g id="Trazado_95628" data-name="Trazado 95628" transform="translate(274.331 1446.408)" fill="#1a519e">
        <path d="M 150.5525512695312 59.25055313110352 L 29.87618064880371 59.25055313110352 C 25.91020393371582 59.25055313110352 22.06311225891113 58.47394180297852 18.44179534912109 56.94230651855469 C 14.94374942779541 55.46280670166016 11.80209064483643 53.34466934204102 9.104067802429199 50.64673614501953 C 6.406067848205566 47.94880676269531 4.287863254547119 44.80723571777344 2.8083176612854 41.30930328369141 C 1.276635766029358 37.6880989074707 0.499999463558197 33.84114456176758 0.499999463558197 29.87528228759766 C 0.499999463558197 25.9094181060791 1.276635766029358 22.06246376037598 2.8083176612854 18.44125938415527 C 4.287863254547119 14.94332790374756 6.406067848205566 11.80175971984863 9.104067802429199 9.103827476501465 C 11.80209064483643 6.405895709991455 14.94374942779541 4.287759780883789 18.44179534912109 2.8082594871521 C 22.06311225891113 1.276623249053955 25.91020393371582 0.5000095367431641 29.87618064880371 0.5000095367431641 L 150.5525512695312 0.5000095367431641 C 154.5185241699219 0.5000095367431641 158.3656158447266 1.276623249053955 161.9869384765625 2.8082594871521 C 165.4849700927734 4.287759780883789 168.6266326904297 6.405895709991455 171.3246612548828 9.103827476501465 C 174.0226593017578 11.80175971984863 176.140869140625 14.94332790374756 177.6204071044922 18.44125938415527 C 179.1520843505859 22.06246376037598 179.9287261962891 25.9094181060791 179.9287261962891 29.87528228759766 C 179.9287261962891 33.84114456176758 179.1520843505859 37.6880989074707 177.6204071044922 41.30930328369141 C 176.140869140625 44.80723571777344 174.0226593017578 47.94880676269531 171.3246612548828 50.64673614501953 C 168.6266326904297 53.34466934204102 165.4849700927734 55.46280670166016 161.9869384765625 56.94230651855469 C 158.3656158447266 58.47394180297852 154.5185241699219 59.25055313110352 150.5525512695312 59.25055313110352 Z" stroke="none"/>
        <path d="M 29.87617492675781 1.000011444091797 C 25.97747802734375 1.000011444091797 22.19593811035156 1.763328552246094 18.63656616210938 3.268760681152344 C 15.19813537597656 4.723056793212891 12.10987854003906 6.805213928222656 9.4576416015625 9.4573974609375 C 6.80535888671875 12.10957717895508 4.723159790039062 15.19771575927734 3.268814086914062 18.63603210449219 C 1.763336181640625 22.19528198242188 1 25.97671508789062 1 29.87528228759766 C 1 33.77384948730469 1.763336181640625 37.55528259277344 3.268814086914062 41.11453247070312 C 4.723159790039062 44.55284881591797 6.80535888671875 47.64098739624023 9.4576416015625 50.29316711425781 C 12.10987854003906 52.94535064697266 15.19813537597656 55.02751159667969 18.63656616210938 56.48180389404297 C 22.19593811035156 57.98723602294922 25.97747802734375 58.75055694580078 29.87617492675781 58.75055694580078 L 150.5525512695312 58.75055694580078 C 154.4512481689453 58.75055694580078 158.2327880859375 57.98723602294922 161.7921600341797 56.48180389404297 C 165.2305908203125 55.02751159667969 168.31884765625 52.94535064697266 170.9710845947266 50.29316711425781 C 173.6233673095703 47.64098739624023 175.70556640625 44.55284881591797 177.159912109375 41.11453247070312 C 178.6653900146484 37.55528259277344 179.4287261962891 33.77384948730469 179.4287261962891 29.87528228759766 C 179.4287261962891 25.97671508789062 178.6653900146484 22.19528198242188 177.159912109375 18.63603210449219 C 175.70556640625 15.19771575927734 173.6233673095703 12.10957717895508 170.9710845947266 9.4573974609375 C 168.31884765625 6.805213928222656 165.2305908203125 4.723056793212891 161.7921600341797 3.268760681152344 C 158.2327880859375 1.763328552246094 154.4512481689453 1.000011444091797 150.5525512695312 1.000011444091797 L 29.87617492675781 1.000011444091797 M 29.87617492675781 1.1444091796875e-05 L 150.5525512695312 1.1444091796875e-05 C 167.0527038574219 1.1444091796875e-05 180.4287261962891 13.3756217956543 180.4287261962891 29.87528228759766 C 180.4287261962891 46.37494277954102 167.0527038574219 59.75055313110352 150.5525512695312 59.75055313110352 L 29.87617492675781 59.75055313110352 C 13.37602233886719 59.75055313110352 0 46.37494277954102 0 29.87528228759766 C 0 13.3756217956543 13.37602233886719 1.1444091796875e-05 29.87617492675781 1.1444091796875e-05 Z" stroke="none" fill="#707070"/>
      </g>
      <text id="Conoce_las_instituciones" data-name="Conoce las 
instituciones" transform="translate(364.307 1469.865)" fill="#fff" font-size="19" font-family="WorkSans-Bold, Work Sans" font-weight="700"><tspan x="-53.893" y="0">Conoce las </tspan><tspan x="-61.028" y="21">instituciones</tspan></text>
      <g id="Trazado_95629" data-name="Trazado 95629" transform="translate(714.761 1446.567)" fill="#1a519e">
        <path d="M 150.5525512695312 59.25055313110352 L 29.87618064880371 59.25055313110352 C 25.91020393371582 59.25055313110352 22.06311225891113 58.47394180297852 18.44179534912109 56.94230651855469 C 14.94374942779541 55.46280670166016 11.80209064483643 53.34466934204102 9.104067802429199 50.64673614501953 C 6.406067848205566 47.94880676269531 4.287863254547119 44.80723571777344 2.8083176612854 41.30930328369141 C 1.276635766029358 37.6880989074707 0.499999463558197 33.84114456176758 0.499999463558197 29.87528228759766 C 0.499999463558197 25.9094181060791 1.276635766029358 22.06246376037598 2.8083176612854 18.44125938415527 C 4.287863254547119 14.94332790374756 6.406067848205566 11.80175971984863 9.104067802429199 9.103827476501465 C 11.80209064483643 6.405895709991455 14.94374942779541 4.287759780883789 18.44179534912109 2.8082594871521 C 22.06311225891113 1.276623249053955 25.91020393371582 0.5000095367431641 29.87618064880371 0.5000095367431641 L 150.5525512695312 0.5000095367431641 C 154.5185241699219 0.5000095367431641 158.3656158447266 1.276623249053955 161.9869384765625 2.8082594871521 C 165.4849700927734 4.287759780883789 168.6266326904297 6.405895709991455 171.3246612548828 9.103827476501465 C 174.0226593017578 11.80175971984863 176.140869140625 14.94332790374756 177.6204071044922 18.44125938415527 C 179.1520843505859 22.06246376037598 179.9287261962891 25.9094181060791 179.9287261962891 29.87528228759766 C 179.9287261962891 33.84114456176758 179.1520843505859 37.6880989074707 177.6204071044922 41.30930328369141 C 176.140869140625 44.80723571777344 174.0226593017578 47.94880676269531 171.3246612548828 50.64673614501953 C 168.6266326904297 53.34466934204102 165.4849700927734 55.46280670166016 161.9869384765625 56.94230651855469 C 158.3656158447266 58.47394180297852 154.5185241699219 59.25055313110352 150.5525512695312 59.25055313110352 Z" stroke="none"/>
        <path d="M 29.87617492675781 1.000011444091797 C 25.97747802734375 1.000011444091797 22.19593811035156 1.763328552246094 18.63656616210938 3.268760681152344 C 15.19813537597656 4.723056793212891 12.10987854003906 6.805213928222656 9.4576416015625 9.4573974609375 C 6.80535888671875 12.10957717895508 4.723159790039062 15.19771575927734 3.268814086914062 18.63603210449219 C 1.763336181640625 22.19528198242188 1 25.97671508789062 1 29.87528228759766 C 1 33.77384948730469 1.763336181640625 37.55528259277344 3.268814086914062 41.11453247070312 C 4.723159790039062 44.55284881591797 6.80535888671875 47.64098739624023 9.4576416015625 50.29316711425781 C 12.10987854003906 52.94535064697266 15.19813537597656 55.02751159667969 18.63656616210938 56.48180389404297 C 22.19593811035156 57.98723602294922 25.97747802734375 58.75055694580078 29.87617492675781 58.75055694580078 L 150.5525512695312 58.75055694580078 C 154.4512481689453 58.75055694580078 158.2327880859375 57.98723602294922 161.7921600341797 56.48180389404297 C 165.2305908203125 55.02751159667969 168.31884765625 52.94535064697266 170.9710845947266 50.29316711425781 C 173.6233673095703 47.64098739624023 175.70556640625 44.55284881591797 177.159912109375 41.11453247070312 C 178.6653900146484 37.55528259277344 179.4287261962891 33.77384948730469 179.4287261962891 29.87528228759766 C 179.4287261962891 25.97671508789062 178.6653900146484 22.19528198242188 177.159912109375 18.63603210449219 C 175.70556640625 15.19771575927734 173.6233673095703 12.10957717895508 170.9710845947266 9.4573974609375 C 168.31884765625 6.805213928222656 165.2305908203125 4.723056793212891 161.7921600341797 3.268760681152344 C 158.2327880859375 1.763328552246094 154.4512481689453 1.000011444091797 150.5525512695312 1.000011444091797 L 29.87617492675781 1.000011444091797 M 29.87617492675781 1.1444091796875e-05 L 150.5525512695312 1.1444091796875e-05 C 167.0527038574219 1.1444091796875e-05 180.4287261962891 13.3756217956543 180.4287261962891 29.87528228759766 C 180.4287261962891 46.37494277954102 167.0527038574219 59.75055313110352 150.5525512695312 59.75055313110352 L 29.87617492675781 59.75055313110352 C 13.37602233886719 59.75055313110352 0 46.37494277954102 0 29.87528228759766 C 0 13.3756217956543 13.37602233886719 1.1444091796875e-05 29.87617492675781 1.1444091796875e-05 Z" stroke="none" fill="#707070"/>
      </g>
      <text id="Preguntas_frecuentes" data-name="Preguntas
frecuentes" transform="translate(804 1472)" fill="#fff" font-size="19" font-family="WorkSans-Bold, Work Sans" font-weight="700"><tspan x="-47.823" y="0">Preguntas</tspan><tspan x="-50.93" y="21">frecuentes</tspan></text>
      <g id="Trazado_95630" data-name="Trazado 95630" transform="translate(935.04 1445.675)" fill="#1a519e">
        <path d="M 157.8971252441406 62.16584777832031 L 31.33366584777832 62.16584777832031 C 27.17092704772949 62.16584777832031 23.13297462463379 61.35070419311523 19.33197593688965 59.74303817749023 C 15.66038036346436 58.19013214111328 12.36283302307129 55.96689605712891 9.530975341796875 53.13508605957031 C 6.699094772338867 50.30327606201172 4.475808620452881 47.00582122802734 2.922856330871582 43.33432388305664 C 1.315165996551514 39.53341674804688 0.4999993145465851 35.49555969238281 0.4999993145465851 31.33291816711426 C 0.4999993145465851 27.17027473449707 1.315165996551514 23.13241767883301 2.922856330871582 19.33151435852051 C 4.475808620452881 15.66001319885254 6.699094772338867 12.36256122589111 9.530975341796875 9.53075122833252 C 12.36283302307129 6.698942184448242 15.66038036346436 4.475703716278076 19.33197593688965 2.922799110412598 C 23.13297462463379 1.31513249874115 27.17092704772949 0.4999895989894867 31.33366584777832 0.4999895989894867 L 157.8971252441406 0.4999895989894867 C 162.0598602294922 0.4999895989894867 166.0978088378906 1.31513249874115 169.8988037109375 2.922799110412598 C 173.5703735351562 4.475703716278076 176.8679046630859 6.698942184448242 179.6997680664062 9.53075122833252 C 182.5316467285156 12.36256122589111 184.7549285888672 15.66001319885254 186.307861328125 19.33151435852051 C 187.9155426025391 23.13241767883301 188.730712890625 27.17027473449707 188.730712890625 31.33291816711426 C 188.730712890625 35.49555969238281 187.9155426025391 39.53341674804688 186.307861328125 43.33432388305664 C 184.7549285888672 47.00582122802734 182.5316467285156 50.30327606201172 179.6997680664062 53.13508605957031 C 176.8679046630859 55.96689605712891 173.5703735351562 58.19013214111328 169.8988037109375 59.74303817749023 C 166.0978088378906 61.35070419311523 162.0598602294922 62.16584777832031 157.8971252441406 62.16584777832031 Z" stroke="none"/>
        <path d="M 31.33366394042969 0.9999885559082031 C 27.23822021484375 0.9999885559082031 23.26577758789062 1.801845550537109 19.5267333984375 3.38330078125 C 15.91473388671875 4.911014556884766 12.67063903808594 7.098251342773438 9.884521484375 9.884300231933594 C 7.098403930664062 12.67034530639648 4.911087036132812 15.91439437866211 3.38336181640625 19.52629852294922 C 1.8018798828125 23.26525115966797 1 27.2375602722168 1 31.33291816711426 C 1 35.42827606201172 1.8018798828125 39.40058517456055 3.38336181640625 43.1395378112793 C 4.911087036132812 46.75144195556641 7.098403930664062 49.99549102783203 9.884521484375 52.78153610229492 C 12.67063903808594 55.56758499145508 15.91473388671875 57.75482177734375 19.5267333984375 59.28253555297852 C 23.26577758789062 60.86399078369141 27.23822021484375 61.66584777832031 31.33366394042969 61.66584777832031 L 157.8971252441406 61.66584777832031 C 161.9925689697266 61.66584777832031 165.9649810791016 60.86399078369141 169.7040252685547 59.28253555297852 C 173.3159942626953 57.75482177734375 176.5600891113281 55.56758499145508 179.3462066650391 52.78153610229492 C 182.1323089599609 49.99549102783203 184.3196105957031 46.75144195556641 185.8473510742188 43.1395378112793 C 187.4288330078125 39.40058517456055 188.230712890625 35.42827606201172 188.230712890625 31.33291816711426 C 188.230712890625 27.2375602722168 187.4288330078125 23.26525115966797 185.8473510742188 19.52629852294922 C 184.3196105957031 15.91439437866211 182.1323089599609 12.67034530639648 179.3462066650391 9.884300231933594 C 176.5600891113281 7.098251342773438 173.3159942626953 4.911014556884766 169.7040252685547 3.38330078125 C 165.9649810791016 1.801845550537109 161.9925689697266 0.9999885559082031 157.8971252441406 0.9999885559082031 L 31.33366394042969 0.9999885559082031 M 31.33366394042969 -1.1444091796875e-05 L 157.8971252441406 -1.1444091796875e-05 C 175.2021636962891 -1.1444091796875e-05 189.230712890625 14.02822875976562 189.230712890625 31.33291816711426 C 189.230712890625 48.63760757446289 175.2021636962891 62.66584777832031 157.8971252441406 62.66584777832031 L 31.33366394042969 62.66584777832031 C 14.028564453125 62.66584777832031 0 48.63760757446289 0 31.33291816711426 C 0 14.02822875976562 14.028564453125 -1.1444091796875e-05 31.33366394042969 -1.1444091796875e-05 Z" stroke="none" fill="#707070"/>
      </g>
      <text id="Reglamento_operativo" data-name="Reglamento 
operativo" transform="translate(1029 1473)" fill="#fff" font-size="19" font-family="WorkSans-Bold, Work Sans" font-weight="700"><tspan x="-58.928" y="0">Reglamento </tspan><tspan x="-44.413" y="21">operativo</tspan></text>
      <g id="Trazado_95631" data-name="Trazado 95631" transform="translate(495.05 1447.597)" fill="#1a519e">
        <path d="M 150.5525512695312 59.25055313110352 L 29.87618064880371 59.25055313110352 C 25.91020393371582 59.25055313110352 22.06311225891113 58.47394180297852 18.44179534912109 56.94230651855469 C 14.94374942779541 55.46280670166016 11.80209064483643 53.34466934204102 9.104067802429199 50.64673614501953 C 6.406067848205566 47.94880676269531 4.287863254547119 44.80723571777344 2.8083176612854 41.30930328369141 C 1.276635766029358 37.6880989074707 0.499999463558197 33.84114456176758 0.499999463558197 29.87528228759766 C 0.499999463558197 25.9094181060791 1.276635766029358 22.06246376037598 2.8083176612854 18.44125938415527 C 4.287863254547119 14.94332790374756 6.406067848205566 11.80175971984863 9.104067802429199 9.103827476501465 C 11.80209064483643 6.405895709991455 14.94374942779541 4.287759780883789 18.44179534912109 2.8082594871521 C 22.06311225891113 1.276623249053955 25.91020393371582 0.5000095367431641 29.87618064880371 0.5000095367431641 L 150.5525512695312 0.5000095367431641 C 154.5185241699219 0.5000095367431641 158.3656158447266 1.276623249053955 161.9869384765625 2.8082594871521 C 165.4849700927734 4.287759780883789 168.6266326904297 6.405895709991455 171.3246612548828 9.103827476501465 C 174.0226593017578 11.80175971984863 176.140869140625 14.94332790374756 177.6204071044922 18.44125938415527 C 179.1520843505859 22.06246376037598 179.9287261962891 25.9094181060791 179.9287261962891 29.87528228759766 C 179.9287261962891 33.84114456176758 179.1520843505859 37.6880989074707 177.6204071044922 41.30930328369141 C 176.140869140625 44.80723571777344 174.0226593017578 47.94880676269531 171.3246612548828 50.64673614501953 C 168.6266326904297 53.34466934204102 165.4849700927734 55.46280670166016 161.9869384765625 56.94230651855469 C 158.3656158447266 58.47394180297852 154.5185241699219 59.25055313110352 150.5525512695312 59.25055313110352 Z" stroke="none"/>
        <path d="M 29.87617492675781 1.000011444091797 C 25.97747802734375 1.000011444091797 22.19593811035156 1.763328552246094 18.63656616210938 3.268760681152344 C 15.19813537597656 4.723056793212891 12.10987854003906 6.805213928222656 9.4576416015625 9.4573974609375 C 6.80535888671875 12.10957717895508 4.723159790039062 15.19771575927734 3.268814086914062 18.63603210449219 C 1.763336181640625 22.19528198242188 1 25.97671508789062 1 29.87528228759766 C 1 33.77384948730469 1.763336181640625 37.55528259277344 3.268814086914062 41.11453247070312 C 4.723159790039062 44.55284881591797 6.80535888671875 47.64098739624023 9.4576416015625 50.29316711425781 C 12.10987854003906 52.94535064697266 15.19813537597656 55.02751159667969 18.63656616210938 56.48180389404297 C 22.19593811035156 57.98723602294922 25.97747802734375 58.75055694580078 29.87617492675781 58.75055694580078 L 150.5525512695312 58.75055694580078 C 154.4512481689453 58.75055694580078 158.2327880859375 57.98723602294922 161.7921600341797 56.48180389404297 C 165.2305908203125 55.02751159667969 168.31884765625 52.94535064697266 170.9710845947266 50.29316711425781 C 173.6233673095703 47.64098739624023 175.70556640625 44.55284881591797 177.159912109375 41.11453247070312 C 178.6653900146484 37.55528259277344 179.4287261962891 33.77384948730469 179.4287261962891 29.87528228759766 C 179.4287261962891 25.97671508789062 178.6653900146484 22.19528198242188 177.159912109375 18.63603210449219 C 175.70556640625 15.19771575927734 173.6233673095703 12.10957717895508 170.9710845947266 9.4573974609375 C 168.31884765625 6.805213928222656 165.2305908203125 4.723056793212891 161.7921600341797 3.268760681152344 C 158.2327880859375 1.763328552246094 154.4512481689453 1.000011444091797 150.5525512695312 1.000011444091797 L 29.87617492675781 1.000011444091797 M 29.87617492675781 1.1444091796875e-05 L 150.5525512695312 1.1444091796875e-05 C 167.0527038574219 1.1444091796875e-05 180.4287261962891 13.3756217956543 180.4287261962891 29.87528228759766 C 180.4287261962891 46.37494277954102 167.0527038574219 59.75055313110352 150.5525512695312 59.75055313110352 L 29.87617492675781 59.75055313110352 C 13.37602233886719 59.75055313110352 0 46.37494277954102 0 29.87528228759766 C 0 13.3756217956543 13.37602233886719 1.1444091796875e-05 29.87617492675781 1.1444091796875e-05 Z" stroke="none" fill="#707070"/>
      </g>
      <text id="Formulario_de_Registro_" data-name="Formulario de 
Registro*" transform="translate(588.55 1472.945)" fill="#fff" font-size="19" font-family="WorkSans-Bold, Work Sans" font-weight="700"><tspan x="-68.115" y="0">Formulario de </tspan><tspan x="-44.583" y="21">Registro*</tspan></text>
    </g>
  </g>
</svg>
