<svg xmlns="http://www.w3.org/2000/svg" viewBox="0 0 29.73 113.4"><defs><style>.cls-1{isolation:isolate;}.cls-2{fill:#fef033;}</style></defs><title>programa2</title><g id="Capa_2" data-name="Capa 2"><g id="Capa_1-2" data-name="Capa 1"><g id="Grupo_5625" data-name="Grupo 5625"><g class="cls-1"><path class="cls-2" d="M3.67,104.46c2.16,0,3.39,1.46,3.39,4.09v2.09h3.66v2.76H.16v-4.85C.16,105.92,1.39,104.46,3.67,104.46Zm0,2.77c-.92,0-1.39.53-1.39,1.75v1.66H5V109C5,107.76,4.58,107.23,3.63,107.23Z"/><path class="cls-2" d="M6.87,95.15V96.8h3.85v2.71H.16v-5c0-2.55,1.18-4,3.36-4a3,3,0,0,1,3.06,2.06l4.14-2.68v3Zm-2,1.65V94.93c0-1.17-.4-1.68-1.34-1.68s-1.33.51-1.33,1.68V96.8Z"/><path class="cls-2" d="M5.44,75.47c3.41,0,5.44,2,5.44,5.17s-2,5.19-5.44,5.19S0,83.86,0,80.64,2,75.47,5.44,75.47Zm0,7.54c2.16,0,3.28-.83,3.28-2.37S7.6,78.29,5.44,78.29s-3.28.83-3.28,2.35S3.28,83,5.44,83Z"/><path class="cls-2" d="M5,60.91h5.71v1.92l-1.24.08a3.35,3.35,0,0,1,1.4,3c0,2.85-1.92,4.91-5.42,4.91S0,68.83,0,65.59c0-2.41.8-3.81,2.71-4.66l1,2.54a1.93,1.93,0,0,0-1.55,2c0,1.6,1.11,2.51,3.28,2.51s3.33-.88,3.33-2.59c0-1.25-.56-2.18-1.74-2.18H6.87v2.62H5Z"/><path class="cls-2" d="M6.87,51.27v1.64h3.85v2.71H.16v-5c0-2.55,1.18-4,3.36-4a3,3,0,0,1,3.06,2.07L10.72,46v3Zm-2,1.64V51c0-1.17-.4-1.68-1.34-1.68S2.24,49.87,2.24,51v1.87Z"/><path class="cls-2" d="M8.34,35.35V39l2.38.74V42.5L.16,38.79v-3.3l10.56-3.7v2.83Zm-1.87.57-2.53.77-1.67.46v0l1.65.43,2.55.8Z"/><path class="cls-2" d="M10.72,15.13v2.44H5.88l-3.26-.08v0l8.1,2.61v2.22L2.62,25v0l3.26-.08h4.84v2.45H.16V23.44l5.38-1.66,2.24-.59v0l-2.23-.61L.16,18.9V15.13Z"/><path class="cls-2" d="M8.34,3.55V7.2l2.38.74v2.77L.16,7V3.7L10.72,0V2.83Zm-1.87.58L3.94,4.9l-1.67.46v0l1.65.44,2.55.8Z"/></g><g id="Grupo_5623" data-name="Grupo 5623"><g id="Grupo_5075" data-name="Grupo 5075"><path id="Trazado_70134" data-name="Trazado 70134" class="cls-2" d="M21.3,7.16a6.37,6.37,0,0,1-1.92,4.6c-.67.77-.95,1.12-.95,2s.28,1.18.95,2a6.47,6.47,0,0,1,0,9.2c-.67.77-.95,1.12-.95,1.95s.28,1.18.95,2a6.47,6.47,0,0,1,0,9.2c-.67.77-.95,1.12-.95,2s.28,1.18.95,2a6.47,6.47,0,0,1,0,9.2c-.67.78-.95,1.12-.95,2H15.06A6.4,6.4,0,0,1,17,48.45c.68-.78,1-1.12,1-2s-.28-1.18-1-2a6.49,6.49,0,0,1,0-9.17l0,0c.68-.78,1-1.12,1-2s-.28-1.18-1-2a6.49,6.49,0,0,1,0-9.17l0,0c.68-.78,1-1.12,1-2s-.28-1.18-1-1.95a6.49,6.49,0,0,1,0-9.17l0,0c.68-.78,1-1.12,1-2S17.65,6,17,5.21A6.38,6.38,0,0,1,15.06.6h3.37c0,.83.28,1.18.95,2A6.37,6.37,0,0,1,21.3,7.16Z"/></g><g id="Grupo_5076" data-name="Grupo 5076"><path id="Trazado_70135" data-name="Trazado 70135" class="cls-2" d="M29.72,7.16a6.36,6.36,0,0,1-1.91,4.6c-.68.77-.95,1.12-.95,2s.27,1.18.95,2a6.49,6.49,0,0,1,0,9.2c-.68.77-.95,1.12-.95,1.95s.27,1.18.95,2a6.49,6.49,0,0,1,0,9.2c-.68.77-.95,1.12-.95,2s.27,1.18.95,2a6.49,6.49,0,0,1,0,9.2c-.68.78-.95,1.12-.95,2H23.48a6.37,6.37,0,0,1,1.92-4.6c.68-.78,1-1.12,1-2s-.27-1.18-1-2a6.48,6.48,0,0,1,0-9.17l0,0c.68-.78,1-1.12,1-2s-.27-1.18-1-2a6.48,6.48,0,0,1,0-9.17l0,0c.68-.78,1-1.12,1-2s-.27-1.18-1-1.95a6.48,6.48,0,0,1,0-9.17l0,0c.68-.78,1-1.12,1-2s-.27-1.18-1-1.95A6.39,6.39,0,0,1,23.48.6h3.38c0,.83.27,1.18.95,2A6.32,6.32,0,0,1,29.72,7.16Z"/></g></g></g></g></g></svg>