<svg xmlns="http://www.w3.org/2000/svg" viewBox="0 0 24.08 239.76"><defs><style>.cls-1{isolation:isolate;}.cls-2{fill:#ff1d50;}</style></defs><title>Recurso 2</title><g id="Capa_2" data-name="Capa 2"><g id="Capa_2-2" data-name="Capa 2"><g class="cls-1"><path class="cls-2" d="M7.22,228.6c2.7,0,4.24,1.82,4.24,5.1v2.62H16v3.44H2.84V233.7C2.84,230.42,4.38,228.6,7.22,228.6Zm0,3.46c-1.16,0-1.74.66-1.74,2.18v2.08h3.5v-2.08C8.94,232.72,8.36,232.06,7.18,232.06Z"/><path class="cls-2" d="M11.22,217V219H16v3.38H2.84v-6.3c0-3.18,1.48-5,4.2-5a3.72,3.72,0,0,1,3.82,2.58L16,210.34v3.8ZM8.78,219v-2.34c0-1.46-.5-2.1-1.68-2.1s-1.66.64-1.66,2.1V219Z"/><path class="cls-2" d="M9.44,192.36c4.26,0,6.8,2.44,6.8,6.46s-2.54,6.49-6.8,6.49-6.8-2.47-6.8-6.49S5.18,192.36,9.44,192.36Zm0,9.42c2.7,0,4.1-1,4.1-3s-1.4-2.94-4.1-2.94-4.1,1-4.1,2.94S6.74,201.78,9.44,201.78Z"/><path class="cls-2" d="M8.9,174.16H16v2.4l-1.56.1a4.16,4.16,0,0,1,1.76,3.78c0,3.56-2.4,6.14-6.78,6.14S2.64,184.06,2.64,180c0-3,1-4.76,3.38-5.82l1.26,3.18a2.4,2.4,0,0,0-1.94,2.54c0,2,1.38,3.14,4.1,3.14s4.16-1.1,4.16-3.24c0-1.56-.7-2.72-2.18-2.72h-.2v3.28H8.9Z"/><path class="cls-2" d="M11.22,162.1v2.06H16v3.39H2.84v-6.31c0-3.18,1.48-5,4.2-5a3.72,3.72,0,0,1,3.82,2.58L16,155.48v3.8Zm-2.44,2.06v-2.34c0-1.46-.5-2.1-1.68-2.1s-1.66.64-1.66,2.1v2.34Z"/><path class="cls-2" d="M13.06,142.2v4.56l3,.92v3.46L2.84,146.5v-4.12L16,137.76v3.54Zm-2.34.72-3.16,1-2.08.58v0l2.06.54,3.18,1Z"/><path class="cls-2" d="M16,116.94v3H10l-4.06-.1v0L16,123.18V126L5.92,129.22v0l4.06-.1H16v3.06H2.84v-4.9l6.72-2.08,2.8-.74v0l-2.78-.76-6.74-2.06v-4.7Z"/><path class="cls-2" d="M13.06,102.46V107l3,.93v3.46l-13.2-4.65v-4.12L16,98v3.54Zm-2.34.72-3.16,1-2.08.58v0l2.06.55,3.18,1Z"/></g><g id="Grupo_10021" data-name="Grupo 10021"><g id="Grupo_5075" data-name="Grupo 5075"><path id="Trazado_70134" data-name="Trazado 70134" class="cls-2" d="M11.48,10.77c0,4-2,6-3.52,7.55-1.25,1.27-1.75,1.84-1.75,3.21s.5,1.94,1.75,3.21c1.48,1.52,3.52,3.59,3.52,7.55s-2,6-3.52,7.56c-1.25,1.26-1.75,1.84-1.75,3.2s.5,2,1.75,3.21c1.48,1.52,3.52,3.6,3.52,7.56s-2,6-3.52,7.55c-1.25,1.27-1.75,1.84-1.75,3.21s.5,1.94,1.75,3.21c1.48,1.52,3.52,3.6,3.52,7.55s-2,6-3.52,7.56c-1.25,1.27-1.75,1.84-1.75,3.21H0c0-4,2-6,3.53-7.56,1.24-1.27,1.75-1.84,1.75-3.21s-.51-1.94-1.75-3.21C2,70.62,0,68.54,0,64.58s2-6,3.53-7.55c1.24-1.27,1.75-1.84,1.75-3.21s-.51-1.94-1.75-3.21C2,49.09,0,47,0,43.05s2-6,3.53-7.55c1.24-1.27,1.75-1.84,1.75-3.21s-.51-1.94-1.75-3.21C2,27.57,0,25.48,0,21.53s2-6,3.53-7.56c1.24-1.27,1.75-1.83,1.75-3.21s-.51-1.94-1.75-3.2C2,6,0,4,0,0H6.21c0,1.37.5,1.94,1.75,3.21C9.44,4.73,11.48,6.81,11.48,10.77Z"/></g><g id="Grupo_5076" data-name="Grupo 5076"><path id="Trazado_70135" data-name="Trazado 70135" class="cls-2" d="M24.08,10.77c0,4-2,6-3.53,7.55-1.24,1.27-1.75,1.84-1.75,3.21s.51,1.94,1.75,3.21c1.49,1.52,3.53,3.59,3.53,7.55s-2,6-3.52,7.56c-1.25,1.26-1.75,1.84-1.75,3.2s.5,2,1.75,3.21c1.48,1.52,3.52,3.6,3.52,7.56s-2,6-3.52,7.55c-1.25,1.27-1.75,1.84-1.75,3.21s.5,1.94,1.75,3.21c1.48,1.52,3.52,3.6,3.52,7.55s-2,6-3.52,7.56c-1.25,1.27-1.75,1.84-1.75,3.21H12.6c0-4,2-6,3.53-7.56,1.24-1.27,1.75-1.84,1.75-3.21s-.51-1.94-1.75-3.21c-1.49-1.51-3.53-3.59-3.53-7.55s2-6,3.53-7.55c1.24-1.27,1.75-1.84,1.75-3.21s-.51-1.94-1.75-3.21c-1.49-1.52-3.53-3.6-3.53-7.56s2-6,3.53-7.55c1.24-1.27,1.75-1.84,1.75-3.21s-.51-1.94-1.75-3.21c-1.49-1.51-3.53-3.6-3.53-7.55s2-6,3.53-7.56c1.24-1.27,1.75-1.83,1.75-3.21s-.51-1.94-1.75-3.2C14.64,6,12.6,4,12.6,0h6.2c0,1.37.51,1.94,1.76,3.21C22,4.73,24.08,6.81,24.08,10.77Z"/></g></g></g></g></svg>